<svg xmlns="http://www.w3.org/2000/svg" xmlns:xlink="http://www.w3.org/1999/xlink" width="500" zoomAndPan="magnify" viewBox="0 0 375 374.999991" height="500" preserveAspectRatio="xMidYMid meet" version="1.0"><defs><g/><clipPath id="ce82d222d7"><path d="M 1 1 L 66 1 L 66 75 L 1 75 Z M 1 1 " clip-rule="nonzero"/></clipPath></defs><g clip-path="url(#ce82d222d7)"><path fill="#1ca4ac" d="M 61.332031 5.878906 C 58.417969 3.101562 54.511719 1.554688 50.488281 1.566406 C 46.328125 1.582031 42.421875 3.210938 39.480469 6.148438 L 33.871094 11.757812 L 28.402344 6.289062 C 22.3125 0.199219 12.394531 0.0078125 6.246094 6.042969 C 0.0351562 12.132812 -0.00390625 22.140625 6.132812 28.277344 L 35.832031 57.976562 C 39.222656 61.367188 39.378906 66.882812 36.054688 70.335938 C 32.65625 73.871094 27.011719 73.914062 23.558594 70.460938 L 16.203125 63.105469 C 15.890625 62.792969 15.859375 62.304688 16.125 61.953125 C 17.214844 60.523438 17.8125 58.707031 17.679688 56.753906 C 17.414062 52.890625 14.257812 49.785156 10.390625 49.582031 C 5.910156 49.347656 2.199219 52.953125 2.257812 57.394531 C 2.3125 61.507812 5.667969 64.902344 9.777344 65.007812 C 11.105469 65.039062 12.359375 64.738281 13.460938 64.179688 C 13.796875 64.007812 14.203125 64.082031 14.464844 64.34375 L 22.066406 71.945312 C 24.183594 74.0625 26.964844 75.121094 29.742188 75.121094 C 32.523438 75.121094 35.304688 74.0625 37.421875 71.945312 C 41.652344 67.714844 41.652344 60.824219 37.421875 56.59375 L 7.621094 26.792969 C 2.339844 21.511719 2.339844 12.917969 7.621094 7.636719 C 12.902344 2.359375 21.496094 2.359375 26.777344 7.636719 L 33.101562 13.964844 C 33.3125 14.175781 33.59375 14.277344 33.871094 14.269531 C 34.152344 14.277344 34.433594 14.175781 34.644531 13.964844 L 40.84375 7.765625 C 43.414062 5.191406 46.882812 3.679688 50.519531 3.671875 C 54.148438 3.664062 57.558594 5.074219 60.125 7.636719 C 62.6875 10.203125 64.097656 13.609375 64.089844 17.234375 C 64.085938 20.871094 62.570312 24.347656 60 26.917969 L 57.996094 28.921875 C 57.832031 29.085938 57.605469 29.179688 57.371094 29.179688 L 51.398438 29.179688 C 51.066406 29.179688 50.761719 28.992188 50.617188 28.695312 L 47.730469 22.925781 C 47.410156 22.28125 46.488281 22.28125 46.164062 22.925781 L 41.207031 32.835938 C 40.882812 33.480469 39.960938 33.480469 39.640625 32.835938 L 37.945312 29.445312 C 37.625 28.800781 36.703125 28.800781 36.378906 29.445312 L 34.6875 32.832031 C 34.363281 33.480469 33.441406 33.480469 33.117188 32.832031 L 28.164062 22.921875 C 27.839844 22.277344 26.917969 22.277344 26.597656 22.921875 L 23.710938 28.695312 C 23.5625 28.988281 23.261719 29.175781 22.929688 29.175781 L 17.644531 29.175781 C 17.066406 29.175781 16.566406 29.621094 16.546875 30.199219 C 16.53125 30.792969 17.007812 31.28125 17.597656 31.28125 L 24.230469 31.28125 C 24.558594 31.28125 24.867188 31.09375 25.011719 30.796875 L 26.597656 27.625 C 26.917969 26.980469 27.839844 26.980469 28.164062 27.625 L 33.117188 37.535156 C 33.441406 38.183594 34.363281 38.183594 34.6875 37.535156 L 36.378906 34.148438 C 36.703125 33.503906 37.625 33.503906 37.945312 34.148438 L 39.640625 37.539062 C 39.960938 38.183594 40.882812 38.183594 41.207031 37.539062 L 46.160156 27.628906 C 46.484375 26.984375 47.40625 26.980469 47.726562 27.628906 L 49.3125 30.796875 C 49.460938 31.09375 49.765625 31.28125 50.097656 31.28125 L 58.167969 31.28125 C 58.167969 31.28125 58.167969 31.28125 58.171875 31.28125 C 58.238281 31.28125 58.300781 31.273438 58.359375 31.265625 C 58.363281 31.265625 58.371094 31.261719 58.375 31.261719 C 58.433594 31.25 58.496094 31.234375 58.554688 31.210938 C 58.558594 31.207031 58.566406 31.207031 58.570312 31.203125 C 58.628906 31.179688 58.683594 31.152344 58.738281 31.117188 C 58.742188 31.113281 58.746094 31.113281 58.753906 31.109375 C 58.808594 31.070312 58.859375 31.027344 58.910156 30.980469 C 58.910156 30.980469 58.910156 30.980469 58.914062 30.976562 L 61.457031 28.433594 C 64.46875 25.421875 66.226562 21.34375 66.195312 17.082031 C 66.160156 12.824219 64.433594 8.832031 61.332031 5.878906 Z M 4.363281 57.289062 C 4.363281 54.195312 6.882812 51.675781 9.976562 51.675781 C 13.074219 51.675781 15.59375 54.195312 15.59375 57.289062 C 15.59375 60.386719 13.074219 62.90625 9.976562 62.90625 C 6.882812 62.90625 4.363281 60.386719 4.363281 57.289062 Z M 4.363281 57.289062 " fill-opacity="1" fill-rule="nonzero"/></g><g fill="#800000" fill-opacity="1"><g transform="translate(44.04634, 59.35799)"><g><path d="M 9.90625 0 L 2.328125 0 L 2.328125 -26.078125 L 9.90625 -26.078125 C 14.332031 -26.078125 17.710938 -24.945312 20.046875 -22.6875 C 22.378906 -20.4375 23.546875 -17.210938 23.546875 -13.015625 C 23.546875 -8.847656 22.367188 -5.632812 20.015625 -3.375 C 17.671875 -1.125 14.300781 0 9.90625 0 Z M 7.25 -21.671875 L 7.25 -4.40625 L 9.84375 -4.40625 C 11.570312 -4.40625 13.097656 -4.671875 14.421875 -5.203125 C 15.742188 -5.742188 16.773438 -6.644531 17.515625 -7.90625 C 18.253906 -9.175781 18.625 -10.878906 18.625 -13.015625 C 18.625 -15.046875 18.257812 -16.691406 17.53125 -17.953125 C 16.800781 -19.222656 15.78125 -20.160156 14.46875 -20.765625 C 13.15625 -21.367188 11.625 -21.671875 9.875 -21.671875 Z M 7.25 -21.671875 "/></g></g></g><g fill="#800000" fill-opacity="1"><g transform="translate(68.923993, 59.35799)"><g><path d="M 11.109375 0.375 C 9.191406 0.375 7.492188 -0.046875 6.015625 -0.890625 C 4.535156 -1.734375 3.378906 -2.910156 2.546875 -4.421875 C 1.710938 -5.941406 1.296875 -7.703125 1.296875 -9.703125 C 1.296875 -11.640625 1.710938 -13.347656 2.546875 -14.828125 C 3.378906 -16.304688 4.53125 -17.46875 6 -18.3125 C 7.46875 -19.15625 9.171875 -19.578125 11.109375 -19.578125 C 13.046875 -19.578125 14.753906 -19.15625 16.234375 -18.3125 C 17.710938 -17.46875 18.867188 -16.304688 19.703125 -14.828125 C 20.535156 -13.347656 20.953125 -11.640625 20.953125 -9.703125 C 20.953125 -7.722656 20.539062 -5.972656 19.71875 -4.453125 C 18.894531 -2.941406 17.742188 -1.757812 16.265625 -0.90625 C 14.785156 -0.0507812 13.066406 0.375 11.109375 0.375 Z M 11.109375 -3.59375 C 12.609375 -3.59375 13.820312 -4.160156 14.75 -5.296875 C 15.6875 -6.429688 16.15625 -7.898438 16.15625 -9.703125 C 16.15625 -10.835938 15.945312 -11.847656 15.53125 -12.734375 C 15.113281 -13.628906 14.523438 -14.332031 13.765625 -14.84375 C 13.015625 -15.351562 12.128906 -15.609375 11.109375 -15.609375 C 10.128906 -15.609375 9.25 -15.359375 8.46875 -14.859375 C 7.695312 -14.359375 7.09375 -13.664062 6.65625 -12.78125 C 6.226562 -11.894531 6.015625 -10.867188 6.015625 -9.703125 C 6.015625 -7.878906 6.492188 -6.40625 7.453125 -5.28125 C 8.410156 -4.15625 9.628906 -3.59375 11.109375 -3.59375 Z M 11.109375 -3.59375 "/></g></g></g><g fill="#800000" fill-opacity="1"><g transform="translate(91.204527, 59.35799)"><g><path d="M 11.03125 0.375 C 9.125 0.375 7.4375 -0.046875 5.96875 -0.890625 C 4.5 -1.734375 3.351562 -2.910156 2.53125 -4.421875 C 1.707031 -5.941406 1.296875 -7.703125 1.296875 -9.703125 C 1.296875 -11.640625 1.707031 -13.347656 2.53125 -14.828125 C 3.351562 -16.304688 4.492188 -17.46875 5.953125 -18.3125 C 7.410156 -19.15625 9.101562 -19.578125 11.03125 -19.578125 C 13.332031 -19.578125 15.285156 -18.984375 16.890625 -17.796875 C 18.503906 -16.617188 19.550781 -15.035156 20.03125 -13.046875 L 15 -13.046875 C 14.40625 -14.898438 13.082031 -15.828125 11.03125 -15.828125 C 9.550781 -15.828125 8.34375 -15.265625 7.40625 -14.140625 C 6.476562 -13.023438 6.015625 -11.546875 6.015625 -9.703125 C 6.015625 -7.785156 6.476562 -6.253906 7.40625 -5.109375 C 8.34375 -3.960938 9.550781 -3.390625 11.03125 -3.390625 C 12.15625 -3.390625 13.054688 -3.660156 13.734375 -4.203125 C 14.421875 -4.742188 14.878906 -5.492188 15.109375 -6.453125 L 20.09375 -6.453125 C 19.800781 -5.023438 19.234375 -3.796875 18.390625 -2.765625 C 17.546875 -1.742188 16.488281 -0.960938 15.21875 -0.421875 C 13.957031 0.109375 12.5625 0.375 11.03125 0.375 Z M 11.03125 0.375 "/></g></g></g><g fill="#800000" fill-opacity="1"><g transform="translate(112.425711, 59.35799)"><g><path d="M 6.734375 0 L 2.125 0 L 2.125 -26.078125 L 6.734375 -26.078125 L 6.734375 -12.09375 L 13.734375 -19.171875 L 19.578125 -19.171875 L 11.109375 -10.859375 L 20.203125 0 L 14.515625 0 L 6.734375 -9.53125 Z M 6.734375 0 "/></g></g></g><g fill="#800000" fill-opacity="1"><g transform="translate(132.792577, 59.35799)"><g><path d="M 4.40625 -21.28125 C 3.632812 -21.28125 2.96875 -21.519531 2.40625 -22 C 1.851562 -22.476562 1.578125 -23.117188 1.578125 -23.921875 C 1.578125 -24.691406 1.851562 -25.320312 2.40625 -25.8125 C 2.96875 -26.300781 3.632812 -26.546875 4.40625 -26.546875 C 5.175781 -26.546875 5.84375 -26.300781 6.40625 -25.8125 C 6.96875 -25.320312 7.25 -24.691406 7.25 -23.921875 C 7.25 -23.117188 6.96875 -22.476562 6.40625 -22 C 5.84375 -21.519531 5.175781 -21.28125 4.40625 -21.28125 Z M 6.703125 0 L 2.078125 0 L 2.078125 -19.171875 L 6.703125 -19.171875 Z M 6.703125 0 "/></g></g></g><g fill="#800000" fill-opacity="1"><g transform="translate(141.609108, 59.35799)"><g><path d="M 11.890625 0 L 8.09375 0 C 6.6875 0 5.585938 -0.328125 4.796875 -0.984375 C 4.015625 -1.648438 3.625 -2.722656 3.625 -4.203125 L 3.625 -15.484375 L 0.78125 -15.484375 L 0.78125 -19.171875 L 3.625 -19.171875 L 3.625 -26.078125 L 8.234375 -26.078125 L 8.234375 -19.171875 L 11.921875 -19.171875 L 11.921875 -15.484375 L 8.234375 -15.484375 L 8.234375 -5.609375 C 8.234375 -5.109375 8.316406 -4.6875 8.484375 -4.34375 C 8.660156 -4 9.101562 -3.828125 9.8125 -3.828125 L 11.890625 -3.828125 Z M 11.890625 0 "/></g></g></g><g fill="#800000" fill-opacity="1"><g transform="translate(154.697212, 59.35799)"><g><path d="M 11.109375 0.375 C 9.191406 0.375 7.492188 -0.046875 6.015625 -0.890625 C 4.535156 -1.734375 3.378906 -2.910156 2.546875 -4.421875 C 1.710938 -5.941406 1.296875 -7.703125 1.296875 -9.703125 C 1.296875 -11.640625 1.710938 -13.347656 2.546875 -14.828125 C 3.378906 -16.304688 4.53125 -17.46875 6 -18.3125 C 7.46875 -19.15625 9.171875 -19.578125 11.109375 -19.578125 C 13.046875 -19.578125 14.753906 -19.15625 16.234375 -18.3125 C 17.710938 -17.46875 18.867188 -16.304688 19.703125 -14.828125 C 20.535156 -13.347656 20.953125 -11.640625 20.953125 -9.703125 C 20.953125 -7.722656 20.539062 -5.972656 19.71875 -4.453125 C 18.894531 -2.941406 17.742188 -1.757812 16.265625 -0.90625 C 14.785156 -0.0507812 13.066406 0.375 11.109375 0.375 Z M 11.109375 -3.59375 C 12.609375 -3.59375 13.820312 -4.160156 14.75 -5.296875 C 15.6875 -6.429688 16.15625 -7.898438 16.15625 -9.703125 C 16.15625 -10.835938 15.945312 -11.847656 15.53125 -12.734375 C 15.113281 -13.628906 14.523438 -14.332031 13.765625 -14.84375 C 13.015625 -15.351562 12.128906 -15.609375 11.109375 -15.609375 C 10.128906 -15.609375 9.25 -15.359375 8.46875 -14.859375 C 7.695312 -14.359375 7.09375 -13.664062 6.65625 -12.78125 C 6.226562 -11.894531 6.015625 -10.867188 6.015625 -9.703125 C 6.015625 -7.878906 6.492188 -6.40625 7.453125 -5.28125 C 8.410156 -4.15625 9.628906 -3.59375 11.109375 -3.59375 Z M 11.109375 -3.59375 "/></g></g></g><g fill="#800000" fill-opacity="1"><g transform="translate(44.04634, 69.025263)"><g><path d="M 8.75 0 L 6.84375 0 L 6.171875 -2.09375 L 2.671875 -2.09375 L 1.984375 0 L 0.140625 0 L 3.28125 -9.109375 L 5.59375 -9.109375 Z M 4.328125 -7.21875 L 3.15625 -3.609375 L 5.671875 -3.609375 L 4.484375 -7.21875 Z M 4.328125 -7.21875 "/></g></g></g><g fill="#800000" fill-opacity="1"><g transform="translate(52.931384, 69.025263)"><g><path d="M 3.390625 0.125 C 2.847656 0.125 2.367188 -0.00390625 1.953125 -0.265625 C 1.535156 -0.523438 1.207031 -0.921875 0.96875 -1.453125 C 0.726562 -1.992188 0.609375 -2.65625 0.609375 -3.4375 C 0.609375 -4.21875 0.726562 -4.875 0.96875 -5.40625 C 1.21875 -5.945312 1.554688 -6.347656 1.984375 -6.609375 C 2.421875 -6.867188 2.921875 -7 3.484375 -7 C 3.910156 -7 4.28125 -6.925781 4.59375 -6.78125 C 4.90625 -6.632812 5.171875 -6.40625 5.390625 -6.09375 L 5.515625 -6.125 L 5.515625 -9.640625 L 7.25 -9.640625 L 7.25 0 L 5.515625 0 L 5.515625 -0.890625 L 5.390625 -0.921875 C 5.203125 -0.597656 4.941406 -0.34375 4.609375 -0.15625 C 4.273438 0.03125 3.867188 0.125 3.390625 0.125 Z M 3.953125 -1.328125 C 4.441406 -1.328125 4.828125 -1.5 5.109375 -1.84375 C 5.390625 -2.195312 5.53125 -2.726562 5.53125 -3.4375 C 5.53125 -4.144531 5.390625 -4.671875 5.109375 -5.015625 C 4.828125 -5.367188 4.441406 -5.546875 3.953125 -5.546875 C 3.453125 -5.546875 3.066406 -5.375 2.796875 -5.03125 C 2.523438 -4.695312 2.390625 -4.164062 2.390625 -3.4375 C 2.390625 -2.707031 2.523438 -2.171875 2.796875 -1.828125 C 3.066406 -1.492188 3.453125 -1.328125 3.953125 -1.328125 Z M 3.953125 -1.328125 "/></g></g></g><g fill="#800000" fill-opacity="1"><g transform="translate(61.174208, 69.025263)"><g><path d="M 0.984375 0 L 0.984375 -6.875 L 2.65625 -6.875 L 2.65625 -5.953125 L 2.78125 -5.921875 C 3 -6.296875 3.257812 -6.566406 3.5625 -6.734375 C 3.863281 -6.910156 4.25 -7 4.71875 -7 C 5.238281 -7 5.65625 -6.894531 5.96875 -6.6875 C 6.289062 -6.488281 6.523438 -6.191406 6.671875 -5.796875 L 6.796875 -5.796875 C 7.015625 -6.203125 7.289062 -6.503906 7.625 -6.703125 C 7.957031 -6.898438 8.375 -7 8.875 -7 C 10.300781 -7 11.015625 -6.207031 11.015625 -4.625 L 11.015625 0 L 9.28125 0 L 9.28125 -4.40625 C 9.28125 -4.8125 9.203125 -5.101562 9.046875 -5.28125 C 8.890625 -5.457031 8.632812 -5.546875 8.28125 -5.546875 C 7.332031 -5.546875 6.859375 -4.910156 6.859375 -3.640625 L 6.859375 0 L 5.140625 0 L 5.140625 -4.40625 C 5.140625 -4.8125 5.054688 -5.101562 4.890625 -5.28125 C 4.734375 -5.457031 4.476562 -5.546875 4.125 -5.546875 C 3.6875 -5.546875 3.34375 -5.394531 3.09375 -5.09375 C 2.84375 -4.800781 2.71875 -4.332031 2.71875 -3.6875 L 2.71875 0 Z M 0.984375 0 "/></g></g></g><g fill="#800000" fill-opacity="1"><g transform="translate(73.070811, 69.025263)"><g><path d="M 1.84375 -7.703125 C 1.539062 -7.703125 1.289062 -7.796875 1.09375 -7.984375 C 0.894531 -8.171875 0.796875 -8.414062 0.796875 -8.71875 C 0.796875 -9.007812 0.894531 -9.25 1.09375 -9.4375 C 1.289062 -9.625 1.539062 -9.71875 1.84375 -9.71875 C 2.050781 -9.71875 2.238281 -9.675781 2.40625 -9.59375 C 2.570312 -9.507812 2.695312 -9.390625 2.78125 -9.234375 C 2.875 -9.078125 2.921875 -8.90625 2.921875 -8.71875 C 2.921875 -8.519531 2.875 -8.34375 2.78125 -8.1875 C 2.695312 -8.03125 2.570312 -7.910156 2.40625 -7.828125 C 2.238281 -7.742188 2.050781 -7.703125 1.84375 -7.703125 Z M 0.984375 0 L 0.984375 -6.875 L 2.71875 -6.875 L 2.71875 0 Z M 0.984375 0 "/></g></g></g><g fill="#800000" fill-opacity="1"><g transform="translate(76.77447, 69.025263)"><g><path d="M 0.984375 0 L 0.984375 -6.875 L 2.65625 -6.875 L 2.65625 -5.859375 L 2.78125 -5.828125 C 3.207031 -6.609375 3.898438 -7 4.859375 -7 C 5.648438 -7 6.234375 -6.78125 6.609375 -6.34375 C 6.984375 -5.914062 7.171875 -5.289062 7.171875 -4.46875 L 7.171875 0 L 5.4375 0 L 5.4375 -4.25 C 5.4375 -4.707031 5.34375 -5.035156 5.15625 -5.234375 C 4.976562 -5.441406 4.6875 -5.546875 4.28125 -5.546875 C 3.789062 -5.546875 3.40625 -5.382812 3.125 -5.0625 C 2.851562 -4.75 2.71875 -4.25 2.71875 -3.5625 L 2.71875 0 Z M 0.984375 0 "/></g></g></g><g fill="#800000" fill-opacity="1"><g transform="translate(84.830241, 69.025263)"><g/></g></g><g fill="#800000" fill-opacity="1"><g transform="translate(87.841805, 69.025263)"><g><path d="M 3.390625 0.125 C 2.847656 0.125 2.367188 -0.00390625 1.953125 -0.265625 C 1.535156 -0.523438 1.207031 -0.921875 0.96875 -1.453125 C 0.726562 -1.992188 0.609375 -2.65625 0.609375 -3.4375 C 0.609375 -4.21875 0.726562 -4.875 0.96875 -5.40625 C 1.21875 -5.945312 1.554688 -6.347656 1.984375 -6.609375 C 2.421875 -6.867188 2.921875 -7 3.484375 -7 C 3.910156 -7 4.28125 -6.925781 4.59375 -6.78125 C 4.90625 -6.632812 5.171875 -6.40625 5.390625 -6.09375 L 5.515625 -6.125 L 5.515625 -9.640625 L 7.25 -9.640625 L 7.25 0 L 5.515625 0 L 5.515625 -0.890625 L 5.390625 -0.921875 C 5.203125 -0.597656 4.941406 -0.34375 4.609375 -0.15625 C 4.273438 0.03125 3.867188 0.125 3.390625 0.125 Z M 3.953125 -1.328125 C 4.441406 -1.328125 4.828125 -1.5 5.109375 -1.84375 C 5.390625 -2.195312 5.53125 -2.726562 5.53125 -3.4375 C 5.53125 -4.144531 5.390625 -4.671875 5.109375 -5.015625 C 4.828125 -5.367188 4.441406 -5.546875 3.953125 -5.546875 C 3.453125 -5.546875 3.066406 -5.375 2.796875 -5.03125 C 2.523438 -4.695312 2.390625 -4.164062 2.390625 -3.4375 C 2.390625 -2.707031 2.523438 -2.171875 2.796875 -1.828125 C 3.066406 -1.492188 3.453125 -1.328125 3.953125 -1.328125 Z M 3.953125 -1.328125 "/></g></g></g><g fill="#800000" fill-opacity="1"><g transform="translate(96.084629, 69.025263)"><g><path d="M 2.6875 0.125 C 2.238281 0.125 1.851562 0.046875 1.53125 -0.109375 C 1.207031 -0.273438 0.957031 -0.515625 0.78125 -0.828125 C 0.613281 -1.140625 0.53125 -1.515625 0.53125 -1.953125 C 0.53125 -2.359375 0.613281 -2.695312 0.78125 -2.96875 C 0.957031 -3.25 1.226562 -3.476562 1.59375 -3.65625 C 1.957031 -3.832031 2.4375 -3.96875 3.03125 -4.0625 C 3.4375 -4.132812 3.742188 -4.207031 3.953125 -4.28125 C 4.171875 -4.363281 4.316406 -4.453125 4.390625 -4.546875 C 4.472656 -4.648438 4.515625 -4.78125 4.515625 -4.9375 C 4.515625 -5.15625 4.4375 -5.320312 4.28125 -5.4375 C 4.125 -5.550781 3.867188 -5.609375 3.515625 -5.609375 C 3.128906 -5.609375 2.765625 -5.523438 2.421875 -5.359375 C 2.078125 -5.191406 1.78125 -4.96875 1.53125 -4.6875 L 1.40625 -4.6875 L 0.671875 -5.78125 C 1.023438 -6.164062 1.453125 -6.460938 1.953125 -6.671875 C 2.460938 -6.890625 3.015625 -7 3.609375 -7 C 4.515625 -7 5.171875 -6.804688 5.578125 -6.421875 C 5.984375 -6.035156 6.1875 -5.488281 6.1875 -4.78125 L 6.1875 -1.796875 C 6.1875 -1.484375 6.320312 -1.328125 6.59375 -1.328125 C 6.695312 -1.328125 6.800781 -1.347656 6.90625 -1.390625 L 6.984375 -1.359375 L 7.109375 -0.15625 C 7.015625 -0.09375 6.878906 -0.0390625 6.703125 0 C 6.535156 0.03125 6.351562 0.046875 6.15625 0.046875 C 5.738281 0.046875 5.414062 -0.03125 5.1875 -0.1875 C 4.957031 -0.34375 4.789062 -0.585938 4.6875 -0.921875 L 4.5625 -0.9375 C 4.226562 -0.226562 3.601562 0.125 2.6875 0.125 Z M 3.234375 -1.15625 C 3.628906 -1.15625 3.945312 -1.289062 4.1875 -1.5625 C 4.425781 -1.832031 4.546875 -2.207031 4.546875 -2.6875 L 4.546875 -3.375 L 4.421875 -3.40625 C 4.316406 -3.320312 4.179688 -3.25 4.015625 -3.1875 C 3.847656 -3.132812 3.609375 -3.082031 3.296875 -3.03125 C 2.921875 -2.96875 2.648438 -2.859375 2.484375 -2.703125 C 2.316406 -2.554688 2.234375 -2.34375 2.234375 -2.0625 C 2.234375 -1.769531 2.320312 -1.546875 2.5 -1.390625 C 2.675781 -1.234375 2.921875 -1.15625 3.234375 -1.15625 Z M 3.234375 -1.15625 "/></g></g></g><g fill="#800000" fill-opacity="1"><g transform="translate(103.336073, 69.025263)"><g><path d="M 3.21875 0.125 C 2.75 0.125 2.316406 0.0703125 1.921875 -0.03125 C 1.535156 -0.144531 1.203125 -0.296875 0.921875 -0.484375 C 0.648438 -0.679688 0.445312 -0.90625 0.3125 -1.15625 L 1.265625 -2.1875 L 1.40625 -2.1875 C 1.632812 -1.882812 1.90625 -1.65625 2.21875 -1.5 C 2.53125 -1.34375 2.867188 -1.265625 3.234375 -1.265625 C 3.566406 -1.265625 3.816406 -1.320312 3.984375 -1.4375 C 4.160156 -1.5625 4.25 -1.738281 4.25 -1.96875 C 4.25 -2.132812 4.1875 -2.273438 4.0625 -2.390625 C 3.9375 -2.515625 3.738281 -2.613281 3.46875 -2.6875 L 2.5625 -2.90625 C 1.875 -3.0625 1.375 -3.304688 1.0625 -3.640625 C 0.75 -3.972656 0.59375 -4.398438 0.59375 -4.921875 C 0.59375 -5.347656 0.703125 -5.71875 0.921875 -6.03125 C 1.140625 -6.34375 1.445312 -6.582031 1.84375 -6.75 C 2.238281 -6.914062 2.703125 -7 3.234375 -7 C 3.847656 -7 4.359375 -6.910156 4.765625 -6.734375 C 5.171875 -6.554688 5.488281 -6.316406 5.71875 -6.015625 L 4.796875 -5.03125 L 4.671875 -5.03125 C 4.484375 -5.238281 4.269531 -5.390625 4.03125 -5.484375 C 3.789062 -5.585938 3.523438 -5.640625 3.234375 -5.640625 C 2.546875 -5.640625 2.203125 -5.429688 2.203125 -5.015625 C 2.203125 -4.835938 2.265625 -4.691406 2.390625 -4.578125 C 2.523438 -4.460938 2.75 -4.367188 3.0625 -4.296875 L 3.921875 -4.109375 C 4.617188 -3.960938 5.125 -3.722656 5.4375 -3.390625 C 5.757812 -3.066406 5.921875 -2.625 5.921875 -2.0625 C 5.921875 -1.625 5.8125 -1.238281 5.59375 -0.90625 C 5.382812 -0.570312 5.078125 -0.316406 4.671875 -0.140625 C 4.265625 0.0351562 3.78125 0.125 3.21875 0.125 Z M 3.21875 0.125 "/></g></g></g><g fill="#800000" fill-opacity="1"><g transform="translate(109.67719, 69.025263)"><g><path d="M 0.984375 0 L 0.984375 -9.640625 L 2.71875 -9.640625 L 2.71875 -5.984375 L 2.84375 -5.953125 C 3.070312 -6.285156 3.351562 -6.539062 3.6875 -6.71875 C 4.019531 -6.90625 4.421875 -7 4.890625 -7 C 6.410156 -7 7.171875 -6.140625 7.171875 -4.421875 L 7.171875 0 L 5.4375 0 L 5.4375 -4.203125 C 5.4375 -4.671875 5.34375 -5.007812 5.15625 -5.21875 C 4.96875 -5.4375 4.675781 -5.546875 4.28125 -5.546875 C 3.800781 -5.546875 3.421875 -5.382812 3.140625 -5.0625 C 2.859375 -4.738281 2.71875 -4.238281 2.71875 -3.5625 L 2.71875 0 Z M 0.984375 0 "/></g></g></g><g fill="#800000" fill-opacity="1"><g transform="translate(117.73296, 69.025263)"><g><path d="M 4.8125 0.125 C 3.925781 0.125 3.269531 -0.203125 2.84375 -0.859375 L 2.71875 -0.828125 L 2.71875 0 L 0.984375 0 L 0.984375 -9.640625 L 2.71875 -9.640625 L 2.71875 -6.0625 L 2.84375 -6.046875 C 3.082031 -6.367188 3.363281 -6.609375 3.6875 -6.765625 C 4.007812 -6.921875 4.394531 -7 4.84375 -7 C 5.394531 -7 5.878906 -6.867188 6.296875 -6.609375 C 6.710938 -6.347656 7.035156 -5.953125 7.265625 -5.421875 C 7.503906 -4.890625 7.625 -4.226562 7.625 -3.4375 C 7.625 -2.65625 7.503906 -1.992188 7.265625 -1.453125 C 7.023438 -0.921875 6.691406 -0.523438 6.265625 -0.265625 C 5.835938 -0.00390625 5.351562 0.125 4.8125 0.125 Z M 4.28125 -1.328125 C 4.789062 -1.328125 5.175781 -1.492188 5.4375 -1.828125 C 5.707031 -2.171875 5.84375 -2.707031 5.84375 -3.4375 C 5.84375 -4.164062 5.707031 -4.695312 5.4375 -5.03125 C 5.175781 -5.375 4.789062 -5.546875 4.28125 -5.546875 C 3.789062 -5.546875 3.40625 -5.367188 3.125 -5.015625 C 2.84375 -4.671875 2.703125 -4.144531 2.703125 -3.4375 C 2.703125 -2.726562 2.84375 -2.195312 3.125 -1.84375 C 3.40625 -1.5 3.789062 -1.328125 4.28125 -1.328125 Z M 4.28125 -1.328125 "/></g></g></g><g fill="#800000" fill-opacity="1"><g transform="translate(125.969552, 69.025263)"><g><path d="M 4 0.125 C 3.320312 0.125 2.726562 -0.0078125 2.21875 -0.28125 C 1.707031 -0.5625 1.3125 -0.96875 1.03125 -1.5 C 0.75 -2.03125 0.609375 -2.675781 0.609375 -3.4375 C 0.609375 -4.1875 0.75 -4.828125 1.03125 -5.359375 C 1.3125 -5.898438 1.707031 -6.304688 2.21875 -6.578125 C 2.726562 -6.859375 3.320312 -7 4 -7 C 4.664062 -7 5.253906 -6.859375 5.765625 -6.578125 C 6.273438 -6.304688 6.671875 -5.898438 6.953125 -5.359375 C 7.234375 -4.828125 7.375 -4.1875 7.375 -3.4375 C 7.375 -2.675781 7.234375 -2.03125 6.953125 -1.5 C 6.671875 -0.96875 6.273438 -0.5625 5.765625 -0.28125 C 5.253906 -0.0078125 4.664062 0.125 4 0.125 Z M 4 -1.328125 C 5.0625 -1.328125 5.59375 -2.03125 5.59375 -3.4375 C 5.59375 -4.164062 5.457031 -4.695312 5.1875 -5.03125 C 4.914062 -5.375 4.519531 -5.546875 4 -5.546875 C 2.925781 -5.546875 2.390625 -4.84375 2.390625 -3.4375 C 2.390625 -2.03125 2.925781 -1.328125 4 -1.328125 Z M 4 -1.328125 "/></g></g></g><g fill="#800000" fill-opacity="1"><g transform="translate(133.962972, 69.025263)"><g><path d="M 2.6875 0.125 C 2.238281 0.125 1.851562 0.046875 1.53125 -0.109375 C 1.207031 -0.273438 0.957031 -0.515625 0.78125 -0.828125 C 0.613281 -1.140625 0.53125 -1.515625 0.53125 -1.953125 C 0.53125 -2.359375 0.613281 -2.695312 0.78125 -2.96875 C 0.957031 -3.25 1.226562 -3.476562 1.59375 -3.65625 C 1.957031 -3.832031 2.4375 -3.96875 3.03125 -4.0625 C 3.4375 -4.132812 3.742188 -4.207031 3.953125 -4.28125 C 4.171875 -4.363281 4.316406 -4.453125 4.390625 -4.546875 C 4.472656 -4.648438 4.515625 -4.78125 4.515625 -4.9375 C 4.515625 -5.15625 4.4375 -5.320312 4.28125 -5.4375 C 4.125 -5.550781 3.867188 -5.609375 3.515625 -5.609375 C 3.128906 -5.609375 2.765625 -5.523438 2.421875 -5.359375 C 2.078125 -5.191406 1.78125 -4.96875 1.53125 -4.6875 L 1.40625 -4.6875 L 0.671875 -5.78125 C 1.023438 -6.164062 1.453125 -6.460938 1.953125 -6.671875 C 2.460938 -6.890625 3.015625 -7 3.609375 -7 C 4.515625 -7 5.171875 -6.804688 5.578125 -6.421875 C 5.984375 -6.035156 6.1875 -5.488281 6.1875 -4.78125 L 6.1875 -1.796875 C 6.1875 -1.484375 6.320312 -1.328125 6.59375 -1.328125 C 6.695312 -1.328125 6.800781 -1.347656 6.90625 -1.390625 L 6.984375 -1.359375 L 7.109375 -0.15625 C 7.015625 -0.09375 6.878906 -0.0390625 6.703125 0 C 6.535156 0.03125 6.351562 0.046875 6.15625 0.046875 C 5.738281 0.046875 5.414062 -0.03125 5.1875 -0.1875 C 4.957031 -0.34375 4.789062 -0.585938 4.6875 -0.921875 L 4.5625 -0.9375 C 4.226562 -0.226562 3.601562 0.125 2.6875 0.125 Z M 3.234375 -1.15625 C 3.628906 -1.15625 3.945312 -1.289062 4.1875 -1.5625 C 4.425781 -1.832031 4.546875 -2.207031 4.546875 -2.6875 L 4.546875 -3.375 L 4.421875 -3.40625 C 4.316406 -3.320312 4.179688 -3.25 4.015625 -3.1875 C 3.847656 -3.132812 3.609375 -3.082031 3.296875 -3.03125 C 2.921875 -2.96875 2.648438 -2.859375 2.484375 -2.703125 C 2.316406 -2.554688 2.234375 -2.34375 2.234375 -2.0625 C 2.234375 -1.769531 2.320312 -1.546875 2.5 -1.390625 C 2.675781 -1.234375 2.921875 -1.15625 3.234375 -1.15625 Z M 3.234375 -1.15625 "/></g></g></g><g fill="#800000" fill-opacity="1"><g transform="translate(141.214416, 69.025263)"><g><path d="M 0.984375 0 L 0.984375 -6.875 L 2.671875 -6.875 L 2.671875 -5.859375 L 2.796875 -5.828125 C 2.960938 -6.210938 3.179688 -6.492188 3.453125 -6.671875 C 3.722656 -6.847656 4.050781 -6.9375 4.4375 -6.9375 C 4.832031 -6.9375 5.128906 -6.867188 5.328125 -6.734375 L 5.03125 -5.25 L 4.90625 -5.21875 C 4.789062 -5.269531 4.679688 -5.304688 4.578125 -5.328125 C 4.472656 -5.347656 4.347656 -5.359375 4.203125 -5.359375 C 3.722656 -5.359375 3.351562 -5.1875 3.09375 -4.84375 C 2.84375 -4.507812 2.71875 -3.96875 2.71875 -3.21875 L 2.71875 0 Z M 0.984375 0 "/></g></g></g><g fill="#800000" fill-opacity="1"><g transform="translate(146.607795, 69.025263)"><g><path d="M 3.390625 0.125 C 2.847656 0.125 2.367188 -0.00390625 1.953125 -0.265625 C 1.535156 -0.523438 1.207031 -0.921875 0.96875 -1.453125 C 0.726562 -1.992188 0.609375 -2.65625 0.609375 -3.4375 C 0.609375 -4.21875 0.726562 -4.875 0.96875 -5.40625 C 1.21875 -5.945312 1.554688 -6.347656 1.984375 -6.609375 C 2.421875 -6.867188 2.921875 -7 3.484375 -7 C 3.910156 -7 4.28125 -6.925781 4.59375 -6.78125 C 4.90625 -6.632812 5.171875 -6.40625 5.390625 -6.09375 L 5.515625 -6.125 L 5.515625 -9.640625 L 7.25 -9.640625 L 7.25 0 L 5.515625 0 L 5.515625 -0.890625 L 5.390625 -0.921875 C 5.203125 -0.597656 4.941406 -0.34375 4.609375 -0.15625 C 4.273438 0.03125 3.867188 0.125 3.390625 0.125 Z M 3.953125 -1.328125 C 4.441406 -1.328125 4.828125 -1.5 5.109375 -1.84375 C 5.390625 -2.195312 5.53125 -2.726562 5.53125 -3.4375 C 5.53125 -4.144531 5.390625 -4.671875 5.109375 -5.015625 C 4.828125 -5.367188 4.441406 -5.546875 3.953125 -5.546875 C 3.453125 -5.546875 3.066406 -5.375 2.796875 -5.03125 C 2.523438 -4.695312 2.390625 -4.164062 2.390625 -3.4375 C 2.390625 -2.707031 2.523438 -2.171875 2.796875 -1.828125 C 3.066406 -1.492188 3.453125 -1.328125 3.953125 -1.328125 Z M 3.953125 -1.328125 "/></g></g></g></svg>