<svg xmlns="http://www.w3.org/2000/svg" xmlns:xlink="http://www.w3.org/1999/xlink" width="500" zoomAndPan="magnify" viewBox="0 0 375 374.999991" height="500" preserveAspectRatio="xMidYMid meet" version="1.0"><defs><g/><clipPath id="20f8d27d82"><path d="M 1 1 L 69.75 1 L 69.75 78.75 L 1 78.75 Z M 1 1 " clip-rule="nonzero"/></clipPath></defs><rect x="-37.5" width="450" fill="#ffffff" y="-37.499999" height="449.999989" fill-opacity="1"/><rect x="-37.5" width="450" fill="#ffffff" y="-37.499999" height="449.999989" fill-opacity="1"/><g clip-path="url(#20f8d27d82)"><path fill="#1ca4ac" d="M 64.523438 6.183594 C 61.457031 3.261719 57.347656 1.632812 53.113281 1.644531 C 48.738281 1.664062 44.628906 3.375 41.535156 6.46875 L 35.632812 12.367188 L 29.882812 6.613281 C 23.472656 0.207031 13.039062 0.0078125 6.570312 6.351562 C 0.0351562 12.761719 -0.00390625 23.292969 6.453125 29.746094 L 37.695312 60.988281 C 41.261719 64.554688 41.429688 70.359375 37.933594 73.992188 C 34.355469 77.710938 28.414062 77.753906 24.785156 74.121094 L 17.042969 66.382812 C 16.71875 66.058594 16.683594 65.542969 16.964844 65.171875 C 18.109375 63.671875 18.742188 61.757812 18.597656 59.703125 C 18.320312 55.636719 14.996094 52.371094 10.929688 52.160156 C 6.21875 51.914062 2.3125 55.707031 2.375 60.378906 C 2.433594 64.707031 5.960938 68.277344 10.285156 68.386719 C 11.683594 68.421875 13 68.101562 14.160156 67.515625 C 14.511719 67.335938 14.941406 67.410156 15.21875 67.691406 L 23.214844 75.6875 C 25.441406 77.914062 28.367188 79.027344 31.289062 79.027344 C 34.214844 79.027344 37.140625 77.910156 39.367188 75.6875 C 43.820312 71.234375 43.820312 63.988281 39.367188 59.535156 L 8.019531 28.183594 C 2.464844 22.628906 2.464844 13.589844 8.019531 8.03125 C 13.574219 2.476562 22.613281 2.476562 28.167969 8.03125 L 34.824219 14.6875 C 35.046875 14.910156 35.339844 15.015625 35.632812 15.007812 C 35.925781 15.015625 36.222656 14.910156 36.445312 14.6875 L 42.96875 8.164062 C 45.671875 5.460938 49.324219 3.867188 53.148438 3.859375 C 56.964844 3.851562 60.554688 5.335938 63.253906 8.03125 C 65.949219 10.730469 67.429688 14.316406 67.425781 18.128906 C 67.417969 21.957031 65.824219 25.609375 63.121094 28.316406 L 61.011719 30.425781 C 60.839844 30.597656 60.601562 30.695312 60.355469 30.695312 L 54.074219 30.695312 C 53.726562 30.695312 53.402344 30.5 53.25 30.1875 L 50.214844 24.117188 C 49.875 23.4375 48.90625 23.4375 48.566406 24.117188 L 43.347656 34.539062 C 43.011719 35.222656 42.039062 35.222656 41.699219 34.539062 L 39.917969 30.976562 C 39.582031 30.296875 38.609375 30.296875 38.269531 30.976562 L 36.488281 34.539062 C 36.152344 35.21875 35.179688 35.21875 34.839844 34.539062 L 29.628906 24.113281 C 29.289062 23.433594 28.320312 23.433594 27.980469 24.113281 L 24.945312 30.183594 C 24.789062 30.496094 24.46875 30.691406 24.121094 30.691406 L 18.558594 30.691406 C 17.953125 30.691406 17.425781 31.160156 17.40625 31.765625 C 17.390625 32.390625 17.890625 32.90625 18.515625 32.90625 L 25.488281 32.90625 C 25.839844 32.90625 26.160156 32.707031 26.3125 32.394531 L 27.980469 29.0625 C 28.320312 28.378906 29.289062 28.378906 29.628906 29.0625 L 34.839844 39.484375 C 35.179688 40.167969 36.152344 40.167969 36.488281 39.484375 L 38.269531 35.921875 C 38.609375 35.242188 39.582031 35.242188 39.917969 35.921875 L 41.699219 39.488281 C 42.039062 40.167969 43.011719 40.167969 43.347656 39.488281 L 48.5625 29.0625 C 48.902344 28.382812 49.871094 28.382812 50.210938 29.0625 L 51.878906 32.398438 C 52.035156 32.710938 52.355469 32.90625 52.703125 32.90625 L 61.199219 32.90625 C 61.265625 32.90625 61.332031 32.898438 61.398438 32.886719 C 61.402344 32.886719 61.40625 32.886719 61.410156 32.886719 C 61.472656 32.875 61.539062 32.855469 61.601562 32.832031 C 61.605469 32.828125 61.609375 32.828125 61.617188 32.824219 C 61.675781 32.800781 61.734375 32.769531 61.792969 32.734375 C 61.796875 32.730469 61.800781 32.726562 61.808594 32.722656 C 61.867188 32.683594 61.921875 32.640625 61.972656 32.589844 C 61.976562 32.589844 61.976562 32.589844 61.976562 32.585938 L 64.65625 29.910156 C 67.824219 26.742188 69.671875 22.449219 69.636719 17.96875 C 69.601562 13.488281 67.785156 9.289062 64.523438 6.183594 Z M 4.589844 60.269531 C 4.589844 57.011719 7.242188 54.359375 10.496094 54.359375 C 13.753906 54.359375 16.40625 57.011719 16.40625 60.269531 C 16.40625 63.527344 13.753906 66.175781 10.496094 66.175781 C 7.242188 66.175781 4.589844 63.527344 4.589844 60.269531 Z M 4.589844 60.269531 " fill-opacity="1" fill-rule="nonzero"/></g><g fill="#800000" fill-opacity="1"><g transform="translate(43.02681, 59.77624)"><g><path d="M 8.265625 0 L 1.9375 0 L 1.9375 -21.75 L 8.265625 -21.75 C 11.953125 -21.75 14.769531 -20.804688 16.71875 -18.921875 C 18.664062 -17.046875 19.640625 -14.359375 19.640625 -10.859375 C 19.640625 -7.378906 18.660156 -4.695312 16.703125 -2.8125 C 14.742188 -0.9375 11.929688 0 8.265625 0 Z M 6.046875 -18.0625 L 6.046875 -3.671875 L 8.203125 -3.671875 C 9.648438 -3.671875 10.925781 -3.894531 12.03125 -4.34375 C 13.132812 -4.789062 13.992188 -5.539062 14.609375 -6.59375 C 15.222656 -7.644531 15.53125 -9.066406 15.53125 -10.859375 C 15.53125 -12.546875 15.222656 -13.914062 14.609375 -14.96875 C 14.003906 -16.03125 13.15625 -16.8125 12.0625 -17.3125 C 10.976562 -17.8125 9.703125 -18.0625 8.234375 -18.0625 Z M 6.046875 -18.0625 "/></g></g></g><g fill="#800000" fill-opacity="1"><g transform="translate(63.768586, 59.77624)"><g><path d="M 9.265625 0.3125 C 7.671875 0.3125 6.253906 -0.0351562 5.015625 -0.734375 C 3.773438 -1.441406 2.804688 -2.425781 2.109375 -3.6875 C 1.421875 -4.957031 1.078125 -6.425781 1.078125 -8.09375 C 1.078125 -9.707031 1.421875 -11.128906 2.109375 -12.359375 C 2.804688 -13.597656 3.769531 -14.566406 5 -15.265625 C 6.226562 -15.972656 7.648438 -16.328125 9.265625 -16.328125 C 10.878906 -16.328125 12.300781 -15.972656 13.53125 -15.265625 C 14.769531 -14.566406 15.734375 -13.597656 16.421875 -12.359375 C 17.117188 -11.128906 17.46875 -9.707031 17.46875 -8.09375 C 17.46875 -6.4375 17.125 -4.976562 16.4375 -3.71875 C 15.757812 -2.457031 14.800781 -1.46875 13.5625 -0.75 C 12.332031 -0.0390625 10.898438 0.3125 9.265625 0.3125 Z M 9.265625 -3 C 10.515625 -3 11.53125 -3.472656 12.3125 -4.421875 C 13.09375 -5.367188 13.484375 -6.59375 13.484375 -8.09375 C 13.484375 -9.039062 13.304688 -9.882812 12.953125 -10.625 C 12.597656 -11.363281 12.109375 -11.945312 11.484375 -12.375 C 10.859375 -12.8125 10.117188 -13.03125 9.265625 -13.03125 C 8.441406 -13.03125 7.707031 -12.816406 7.0625 -12.390625 C 6.414062 -11.972656 5.910156 -11.394531 5.546875 -10.65625 C 5.191406 -9.914062 5.015625 -9.0625 5.015625 -8.09375 C 5.015625 -6.570312 5.410156 -5.34375 6.203125 -4.40625 C 7.003906 -3.46875 8.023438 -3 9.265625 -3 Z M 9.265625 -3 "/></g></g></g><g fill="#800000" fill-opacity="1"><g transform="translate(82.34501, 59.77624)"><g><path d="M 9.203125 0.3125 C 7.609375 0.3125 6.195312 -0.0351562 4.96875 -0.734375 C 3.75 -1.441406 2.796875 -2.425781 2.109375 -3.6875 C 1.421875 -4.957031 1.078125 -6.425781 1.078125 -8.09375 C 1.078125 -9.707031 1.421875 -11.128906 2.109375 -12.359375 C 2.796875 -13.597656 3.742188 -14.566406 4.953125 -15.265625 C 6.171875 -15.972656 7.585938 -16.328125 9.203125 -16.328125 C 11.117188 -16.328125 12.75 -15.832031 14.09375 -14.84375 C 15.4375 -13.851562 16.304688 -12.535156 16.703125 -10.890625 L 12.515625 -10.890625 C 12.015625 -12.429688 10.910156 -13.203125 9.203125 -13.203125 C 7.972656 -13.203125 6.96875 -12.734375 6.1875 -11.796875 C 5.40625 -10.867188 5.015625 -9.632812 5.015625 -8.09375 C 5.015625 -6.5 5.40625 -5.222656 6.1875 -4.265625 C 6.96875 -3.304688 7.972656 -2.828125 9.203125 -2.828125 C 10.140625 -2.828125 10.890625 -3.050781 11.453125 -3.5 C 12.023438 -3.957031 12.40625 -4.585938 12.59375 -5.390625 L 16.765625 -5.390625 C 16.515625 -4.191406 16.035156 -3.164062 15.328125 -2.3125 C 14.628906 -1.457031 13.75 -0.804688 12.6875 -0.359375 C 11.632812 0.0859375 10.472656 0.3125 9.203125 0.3125 Z M 9.203125 0.3125 "/></g></g></g><g fill="#800000" fill-opacity="1"><g transform="translate(100.0382, 59.77624)"><g><path d="M 5.609375 0 L 1.765625 0 L 1.765625 -21.75 L 5.609375 -21.75 L 5.609375 -10.09375 L 11.453125 -15.984375 L 16.328125 -15.984375 L 9.265625 -9.0625 L 16.84375 0 L 12.109375 0 L 5.609375 -7.953125 Z M 5.609375 0 "/></g></g></g><g fill="#800000" fill-opacity="1"><g transform="translate(117.019102, 59.77624)"><g><path d="M 3.671875 -17.75 C 3.023438 -17.75 2.46875 -17.945312 2 -18.34375 C 1.539062 -18.75 1.3125 -19.285156 1.3125 -19.953125 C 1.3125 -20.597656 1.539062 -21.125 2 -21.53125 C 2.46875 -21.9375 3.023438 -22.140625 3.671875 -22.140625 C 4.316406 -22.140625 4.875 -21.9375 5.34375 -21.53125 C 5.8125 -21.125 6.046875 -20.597656 6.046875 -19.953125 C 6.046875 -19.285156 5.8125 -18.75 5.34375 -18.34375 C 4.875 -17.945312 4.316406 -17.75 3.671875 -17.75 Z M 5.59375 0 L 1.734375 0 L 1.734375 -15.984375 L 5.59375 -15.984375 Z M 5.59375 0 "/></g></g></g><g fill="#800000" fill-opacity="1"><g transform="translate(124.369897, 59.77624)"><g><path d="M 9.921875 0 L 6.75 0 C 5.570312 0 4.65625 -0.273438 4 -0.828125 C 3.34375 -1.378906 3.015625 -2.269531 3.015625 -3.5 L 3.015625 -12.90625 L 0.65625 -12.90625 L 0.65625 -15.984375 L 3.015625 -15.984375 L 3.015625 -21.75 L 6.875 -21.75 L 6.875 -15.984375 L 9.953125 -15.984375 L 9.953125 -12.90625 L 6.875 -12.90625 L 6.875 -4.671875 C 6.875 -4.253906 6.941406 -3.898438 7.078125 -3.609375 C 7.222656 -3.328125 7.585938 -3.1875 8.171875 -3.1875 L 9.921875 -3.1875 Z M 9.921875 0 "/></g></g></g><g fill="#800000" fill-opacity="1"><g transform="translate(135.28212, 59.77624)"><g><path d="M 9.265625 0.3125 C 7.671875 0.3125 6.253906 -0.0351562 5.015625 -0.734375 C 3.773438 -1.441406 2.804688 -2.425781 2.109375 -3.6875 C 1.421875 -4.957031 1.078125 -6.425781 1.078125 -8.09375 C 1.078125 -9.707031 1.421875 -11.128906 2.109375 -12.359375 C 2.804688 -13.597656 3.769531 -14.566406 5 -15.265625 C 6.226562 -15.972656 7.648438 -16.328125 9.265625 -16.328125 C 10.878906 -16.328125 12.300781 -15.972656 13.53125 -15.265625 C 14.769531 -14.566406 15.734375 -13.597656 16.421875 -12.359375 C 17.117188 -11.128906 17.46875 -9.707031 17.46875 -8.09375 C 17.46875 -6.4375 17.125 -4.976562 16.4375 -3.71875 C 15.757812 -2.457031 14.800781 -1.46875 13.5625 -0.75 C 12.332031 -0.0390625 10.898438 0.3125 9.265625 0.3125 Z M 9.265625 -3 C 10.515625 -3 11.53125 -3.472656 12.3125 -4.421875 C 13.09375 -5.367188 13.484375 -6.59375 13.484375 -8.09375 C 13.484375 -9.039062 13.304688 -9.882812 12.953125 -10.625 C 12.597656 -11.363281 12.109375 -11.945312 11.484375 -12.375 C 10.859375 -12.8125 10.117188 -13.03125 9.265625 -13.03125 C 8.441406 -13.03125 7.707031 -12.816406 7.0625 -12.390625 C 6.414062 -11.972656 5.910156 -11.394531 5.546875 -10.65625 C 5.191406 -9.914062 5.015625 -9.0625 5.015625 -8.09375 C 5.015625 -6.570312 5.410156 -5.34375 6.203125 -4.40625 C 7.003906 -3.46875 8.023438 -3 9.265625 -3 Z M 9.265625 -3 "/></g></g></g></svg>